<?xml version="1.0" standalone="no"?>
<!DOCTYPE svg PUBLIC "-//W3C//DTD SVG 20010904//EN"
 "http://www.w3.org/TR/2001/REC-SVG-20010904/DTD/svg10.dtd">
<svg version="1.0" xmlns="http://www.w3.org/2000/svg"
 width="30pt" height="30pt" viewBox="0 0 835.000000 834.000000"
 preserveAspectRatio="xMidYMid meet">

<g transform="translate(0.000000,834.000000) scale(0.100000,-0.100000)"
fill="#f15f61" stroke="none">
<path d="M3770 8314 c-1432 -141 -2684 -1006 -3325 -2297 -584 -1174 -578
-2556 17 -3730 519 -1025 1451 -1797 2554 -2116 382 -111 743 -161 1159 -161
416 0 777 50 1159 161 1103 319 2035 1091 2554 2116 295 581 452 1237 452
1883 0 1300 -615 2534 -1657 3323 -614 465 -1343 748 -2119 822 -193 18 -604
18 -794 -1z m-38 -2864 c116 -43 209 -160 244 -306 23 -91 22 -302 0 -449 -19
-124 -63 -305 -100 -412 l-24 -71 23 -6 c34 -9 248 -26 321 -26 l61 0 6 193
c9 271 57 734 89 867 35 142 112 197 264 188 112 -7 159 -48 170 -145 3 -27
-8 -149 -25 -283 -108 -835 -86 -1416 62 -1637 69 -104 139 -108 241 -13 261
244 514 931 666 1810 24 138 61 204 133 243 35 18 58 22 137 22 193 0 213 -53
158 -420 -44 -298 -53 -433 -53 -825 0 -466 19 -631 89 -769 64 -126 194 -165
315 -95 107 63 251 230 370 431 71 121 141 257 141 276 0 8 -18 26 -40 41 -62
41 -145 131 -194 210 -121 194 -158 502 -91 761 44 172 152 317 285 384 285
142 570 25 644 -264 47 -189 18 -500 -79 -819 -20 -65 -34 -121 -31 -124 11
-10 108 -21 254 -28 197 -9 222 -23 222 -121 0 -72 -40 -147 -94 -176 -37 -20
-54 -22 -186 -21 -125 2 -268 15 -320 30 -11 3 -27 -19 -54 -74 -100 -202
-233 -402 -383 -574 -132 -150 -248 -245 -388 -314 -284 -141 -537 -75 -667
172 -71 134 -126 334 -149 539 -6 55 -14 124 -17 154 l-7 54 -44 -114 c-61
-160 -159 -357 -232 -469 -123 -185 -290 -331 -437 -382 -53 -18 -88 -23 -167
-23 -92 0 -106 3 -168 33 -211 99 -348 405 -399 888 l-12 113 -30 -17 c-26
-14 -57 -17 -176 -16 -126 2 -287 16 -323 29 -7 3 -37 -44 -72 -112 -162 -315
-416 -631 -620 -772 -273 -189 -541 -200 -709 -28 -126 129 -215 400 -247 745
l-12 132 -37 -97 c-149 -392 -332 -666 -536 -802 -105 -71 -186 -96 -310 -96
-96 0 -103 2 -176 38 -197 97 -320 357 -385 817 -28 197 -25 783 5 1063 34
305 58 459 83 516 39 91 106 131 219 131 114 0 171 -37 191 -124 12 -54 12
-50 -30 -376 -111 -863 -61 -1500 128 -1627 65 -44 124 -21 222 85 228 246
460 875 600 1622 22 118 47 237 55 263 32 99 102 148 225 155 103 6 161 -18
189 -80 25 -56 25 -82 -5 -274 -42 -277 -57 -458 -62 -774 -8 -446 16 -727 75
-862 62 -142 185 -191 319 -128 76 37 215 184 315 335 85 128 208 352 208 377
-1 7 -28 33 -62 58 -125 92 -227 253 -270 425 -30 120 -32 369 -5 487 61 262
206 425 421 474 83 19 206 12 278 -16z"/>
<path d="M3475 5123 c-92 -24 -147 -154 -148 -348 0 -173 37 -283 131 -385
l48 -53 32 109 c60 205 75 289 76 429 1 114 -2 136 -21 178 -17 35 -31 51 -57
62 -20 8 -37 14 -38 14 -2 -1 -12 -4 -23 -6z"/>
<path d="M7103 5111 c-79 -37 -123 -154 -123 -333 0 -127 12 -191 51 -275 31
-64 112 -163 124 -151 16 16 77 239 97 353 37 217 14 371 -62 410 -36 19 -36
19 -87 -4z"/>
</g>
</svg>
